<svg width="20" height="20" viewBox="0 0 20 20" fill="none" xmlns="http://www.w3.org/2000/svg">
<path d="M8.65937 0.78125H2.5C2.04441 0.782075 1.60772 0.963422 1.28557 1.28557C0.963422 1.60772 0.782075 2.04441 0.78125 2.5V8.65937C0.78125 8.78369 0.830638 8.90294 0.918544 8.99084C1.00645 9.07875 1.12568 9.12812 1.25 9.12812H7.40937C7.86522 9.12812 8.30237 8.94703 8.62472 8.62472C8.94703 8.30237 9.12812 7.86522 9.12812 7.40937V1.25C9.12812 1.12568 9.07875 1.00645 8.99084 0.918544C8.90294 0.830638 8.78369 0.78125 8.65937 0.78125Z" fill="#000" fill-opacity="0.8"/>
<path d="M7.40937 10.8718H1.25C1.12568 10.8718 1.00645 10.9212 0.918544 11.0091C0.830638 11.097 0.78125 11.2163 0.78125 11.3406V17.5C0.782075 17.9555 0.963422 18.3922 1.28557 18.7144C1.60772 19.0365 2.04441 19.2179 2.5 19.2187H8.65937C8.78369 19.2187 8.90294 19.1693 8.99084 19.0814C9.07875 18.9935 9.12812 18.8743 9.12812 18.7499V12.5906C9.12812 12.1347 8.94703 11.6976 8.62472 11.3753C8.30237 11.0529 7.86522 10.8718 7.40937 10.8718Z" fill="#000" fill-opacity="0.8"/>
<path d="M18.7499 10.8718H12.5906C12.1347 10.8718 11.6976 11.0529 11.3753 11.3753C11.0529 11.6976 10.8718 12.1347 10.8718 12.5906V18.7499C10.8718 18.8743 10.9212 18.9935 11.0091 19.0814C11.097 19.1693 11.2163 19.2187 11.3406 19.2187H17.5C17.9555 19.2179 18.3922 19.0365 18.7144 18.7144C19.0365 18.3922 19.2179 17.9555 19.2187 17.5V11.3406C19.2187 11.2163 19.1693 11.097 19.0814 11.0091C18.9935 10.9212 18.8743 10.8718 18.7499 10.8718Z" fill="#000" fill-opacity="0.8"/>
<path d="M12.5906 6.675H13.325V7.40937C13.325 7.86522 13.506 8.30237 13.8284 8.62472C14.1507 8.94703 14.5879 9.12812 15.0437 9.12812C15.4995 9.12812 15.9367 8.94703 16.259 8.62472C16.5814 8.30237 16.7625 7.86522 16.7625 7.40937V6.675H17.5C17.9558 6.675 18.393 6.49391 18.7153 6.17159C19.0376 5.84925 19.2187 5.41209 19.2187 4.95625C19.2187 4.50041 19.0376 4.06325 18.7153 3.74091C18.393 3.41859 17.9558 3.2375 17.5 3.2375H16.7625V2.5C16.7625 2.04416 16.5814 1.60699 16.259 1.28466C15.9367 0.962331 15.4995 0.78125 15.0437 0.78125C14.5879 0.78125 14.1507 0.962331 13.8284 1.28466C13.506 1.60699 13.325 2.04416 13.325 2.5V3.2375H12.5906C12.1347 3.2375 11.6976 3.41859 11.3753 3.74091C11.0529 4.06325 10.8718 4.50041 10.8718 4.95625C10.8718 5.41209 11.0529 5.84925 11.3753 6.17159C11.6976 6.49391 12.1347 6.675 12.5906 6.675Z" fill="#000" fill-opacity="0.8"/>
</svg>
