<svg width="16" height="16" viewBox="0 0 16 16" fill="none" xmlns="http://www.w3.org/2000/svg">
<path d="M3.25 8C3.94036 8 4.5 7.44036 4.5 6.75C4.5 6.05964 3.94036 5.5 3.25 5.5C2.55964 5.5 2 6.05964 2 6.75C2 7.44036 2.55964 8 3.25 8Z" fill="#000"/>
<path d="M2.5 6.5C3.88071 6.5 5 5.38071 5 4C5 2.61929 3.88071 1.5 2.5 1.5C1.11929 1.5 0 2.61929 0 4C0 5.38071 1.11929 6.5 2.5 6.5Z" fill="#000"/>
<path d="M2.5 5C3.05228 5 3.5 4.55228 3.5 4C3.5 3.44772 3.05228 3 2.5 3C1.94772 3 1.5 3.44772 1.5 4C1.5 4.55228 1.94772 5 2.5 5Z" fill="#000"/>
<path d="M12.75 8C13.4404 8 14 7.44036 14 6.75C14 6.05964 13.4404 5.5 12.75 5.5C12.0596 5.5 11.5 6.05964 11.5 6.75C11.5 7.44036 12.0596 8 12.75 8Z" fill="#000"/>
<path d="M13.5 6.5C14.8807 6.5 16 5.38071 16 4C16 2.61929 14.8807 1.5 13.5 1.5C12.1193 1.5 11 2.61929 11 4C11 5.38071 12.1193 6.5 13.5 6.5Z" fill="#000"/>
<path d="M13.5 5C14.0523 5 14.5 4.55228 14.5 4C14.5 3.44772 14.0523 3 13.5 3C12.9477 3 12.5 3.44772 12.5 4C12.5 4.55228 12.9477 5 13.5 5Z" fill="#000"/>
<path d="M2.5 1.5V2.5C2.5 5.5376 4.96245 8 8 8C11.0375 8 13.5 5.5376 13.5 2.5V1.5H2.5Z" fill="#000"/>
<path d="M8 1.5H2.5V2.5C2.5 5.5376 4.96245 8 8 8V1.5Z" fill="#000"/>
<path d="M8 10.5H9.5L11 13.5H8V10.5Z" fill="#000"/>
<path d="M9.5 5H8V11H9.5V5Z" fill="#000"/>
<path d="M8 5H6.5V11H8V5Z" fill="#000"/>
<path d="M6.5 10.5H8V13.5H5L6.5 10.5Z" fill="#000"/>
<path d="M8 13H4.5V16H8V13Z" fill="#000"/>
<path d="M11.5 13H8V16H11.5V13Z" fill="#000"/>
<path d="M8 14.5H6V16H8V14.5Z" fill="#000"/>
<path d="M10 14.5H8V16H10V14.5Z" fill="#000"/>
<path d="M8 0H2.5V1.5H8V0Z" fill="#000"/>
<path d="M13.5 0H8V1.5H13.5V0Z" fill="#000"/>
</svg>
